<svg height="2846" width="720" xmlns="http://www.w3.org/2000/svg">
<rect height="2846" fill="#555" width="720"></rect>
<text fill="#7f7" font-family="Courier New" font-size="12" xml:space="preserve">
<tspan x="10" y="26">└─┬ gulp-w3cjs@1.3.0 </tspan>
<tspan x="10" y="42">  ├─┬ gulp-util@3.0.8 </tspan>
<tspan x="10" y="58">  │ ├── array-differ@1.0.0 </tspan>
<tspan x="10" y="74">  │ ├── array-uniq@1.0.3 </tspan>
<tspan x="10" y="90">  │ ├── beeper@1.1.1 </tspan>
<tspan x="10" y="106">  │ ├─┬ chalk@1.1.3 </tspan>
<tspan x="10" y="122">  │ │ ├── ansi-styles@2.2.1 </tspan>
<tspan x="10" y="138">  │ │ ├── escape-string-regexp@1.0.5 </tspan>
<tspan x="10" y="154">  │ │ ├─┬ has-ansi@2.0.0 </tspan>
<tspan x="10" y="170">  │ │ │ └── ansi-regex@2.1.1 </tspan>
<tspan x="10" y="186">  │ │ ├── strip-ansi@3.0.1 </tspan>
<tspan x="10" y="202">  │ │ └── supports-color@2.0.0 </tspan>
<tspan x="10" y="218">  │ ├── dateformat@2.0.0 </tspan>
<tspan x="10" y="234">  │ ├─┬ fancy-log@1.3.0 </tspan>
<tspan x="10" y="250">  │ │ └── time-stamp@1.0.1 </tspan>
<tspan x="10" y="266">  │ ├─┬ gulplog@1.0.0 </tspan>
<tspan x="10" y="282">  │ │ └── glogg@1.0.0 </tspan>
<tspan x="10" y="298">  │ ├─┬ has-gulplog@0.1.0 </tspan>
<tspan x="10" y="314">  │ │ └── sparkles@1.0.0 </tspan>
<tspan x="10" y="330">  │ ├── lodash._reescape@3.0.0 </tspan>
<tspan x="10" y="346">  │ ├── lodash._reevaluate@3.0.0 </tspan>
<tspan x="10" y="362">  │ ├── lodash._reinterpolate@3.0.0 </tspan>
<tspan x="10" y="378">  │ ├─┬ lodash.template@3.6.2 </tspan>
<tspan x="10" y="394">  │ │ ├── lodash._basecopy@3.0.1 </tspan>
<tspan x="10" y="410">  │ │ ├── lodash._basetostring@3.0.1 </tspan>
<tspan x="10" y="426">  │ │ ├── lodash._basevalues@3.0.0 </tspan>
<tspan x="10" y="442">  │ │ ├── lodash._isiterateecall@3.0.9 </tspan>
<tspan x="10" y="458">  │ │ ├─┬ lodash.escape@3.2.0 </tspan>
<tspan x="10" y="474">  │ │ │ └── lodash._root@3.0.1 </tspan>
<tspan x="10" y="490">  │ │ ├─┬ lodash.keys@3.1.2 </tspan>
<tspan x="10" y="506">  │ │ │ ├── lodash._getnative@3.9.1 </tspan>
<tspan x="10" y="522">  │ │ │ ├── lodash.isarguments@3.1.0 </tspan>
<tspan x="10" y="538">  │ │ │ └── lodash.isarray@3.0.4 </tspan>
<tspan x="10" y="554">  │ │ ├── lodash.restparam@3.6.1 </tspan>
<tspan x="10" y="570">  │ │ └── lodash.templatesettings@3.1.1 </tspan>
<tspan x="10" y="586">  │ ├── minimist@1.2.0 </tspan>
<tspan x="10" y="602">  │ ├─┬ multipipe@0.1.2 </tspan>
<tspan x="10" y="618">  │ │ └─┬ duplexer2@0.0.2 </tspan>
<tspan x="10" y="634">  │ │   └── readable-stream@1.1.14 </tspan>
<tspan x="10" y="650">  │ ├── object-assign@3.0.0 </tspan>
<tspan x="10" y="666">  │ ├── replace-ext@0.0.1 </tspan>
<tspan x="10" y="682">  │ └─┬ vinyl@0.5.3 </tspan>
<tspan x="10" y="698">  │   ├── clone@1.0.2 </tspan>
<tspan x="10" y="714">  │   └── clone-stats@0.0.1 </tspan>
<tspan x="10" y="730">  ├─┬ through2@2.0.3 </tspan>
<tspan x="10" y="746">  │ ├─┬ readable-stream@2.2.6 </tspan>
<tspan x="10" y="762">  │ │ ├── buffer-shims@1.0.0 </tspan>
<tspan x="10" y="778">  │ │ ├── core-util-is@1.0.2 </tspan>
<tspan x="10" y="794">  │ │ ├── inherits@2.0.3 </tspan>
<tspan x="10" y="810">  │ │ ├── isarray@1.0.0 </tspan>
<tspan x="10" y="826">  │ │ ├── process-nextick-args@1.0.7 </tspan>
<tspan x="10" y="842">  │ │ ├── string_decoder@0.10.31 </tspan>
<tspan x="10" y="858">  │ │ └── util-deprecate@1.0.2 </tspan>
<tspan x="10" y="874">  │ └── xtend@4.0.1 </tspan>
<tspan x="10" y="890">  └─┬ w3cjs@0.3.0 </tspan>
<tspan x="10" y="906">    ├── commander@2.6.0 </tspan>
<tspan x="10" y="922">    ├─┬ superagent@0.21.0 </tspan>
<tspan x="10" y="938">    │ ├── component-emitter@1.1.2 </tspan>
<tspan x="10" y="954">    │ ├── cookiejar@2.0.1 </tspan>
<tspan x="10" y="970">    │ ├─┬ debug@2.6.3 </tspan>
<tspan x="10" y="986">    │ │ └── ms@0.7.2 </tspan>
<tspan x="10" y="1002">    │ ├── extend@1.2.1 </tspan>
<tspan x="10" y="1018">    │ ├─┬ form-data@0.1.3 </tspan>
<tspan x="10" y="1034">    │ │ ├── async@0.9.2 </tspan>
<tspan x="10" y="1050">    │ │ └─┬ combined-stream@0.0.7 </tspan>
<tspan x="10" y="1066">    │ │   └── delayed-stream@0.0.5 </tspan>
<tspan x="10" y="1082">    │ ├── formidable@1.0.14 </tspan>
<tspan x="10" y="1098">    │ ├── methods@1.0.1 </tspan>
<tspan x="10" y="1114">    │ ├── mime@1.2.11 </tspan>
<tspan x="10" y="1130">    │ ├── qs@1.2.0 </tspan>
<tspan x="10" y="1146">    │ ├─┬ readable-stream@1.0.27-1 </tspan>
<tspan x="10" y="1162">    │ │ └── isarray@0.0.1 </tspan>
<tspan x="10" y="1178">    │ └── reduce-component@1.0.1 </tspan>
<tspan x="10" y="1194">    └─┬ superagent-proxy@0.3.2 </tspan>
<tspan x="10" y="1210">      ├─┬ debug@2.2.0 </tspan>
<tspan x="10" y="1226">      │ └── ms@0.7.1 </tspan>
<tspan x="10" y="1242">      └─┬ proxy-agent@1.1.1 </tspan>
<tspan x="10" y="1258">        ├─┬ http-proxy-agent@0.2.7 </tspan>
<tspan x="10" y="1274">        │ ├── agent-base@1.0.2 </tspan>
<tspan x="10" y="1290">        │ └── extend@3.0.0 </tspan>
<tspan x="10" y="1306">        ├─┬ https-proxy-agent@0.3.6 </tspan>
<tspan x="10" y="1322">        │ └── extend@3.0.0 </tspan>
<tspan x="10" y="1338">        ├── lru-cache@2.5.2 </tspan>
<tspan x="10" y="1354">        ├─┬ pac-proxy-agent@0.2.0 </tspan>
<tspan x="10" y="1370">        │ ├─┬ get-uri@0.1.4 </tspan>
<tspan x="10" y="1386">        │ │ ├── data-uri-to-buffer@0.0.4 </tspan>
<tspan x="10" y="1402">        │ │ ├── extend@3.0.0 </tspan>
<tspan x="10" y="1418">        │ │ ├── file-uri-to-path@0.0.2 </tspan>
<tspan x="10" y="1434">        │ │ ├─┬ ftp@0.3.10 </tspan>
<tspan x="10" y="1450">        │ │ │ └── xregexp@2.0.0 </tspan>
<tspan x="10" y="1466">        │ │ └─┬ readable-stream@2.2.6 </tspan>
<tspan x="10" y="1482">        │ │   └── isarray@1.0.0 </tspan>
<tspan x="10" y="1498">        │ ├─┬ pac-resolver@1.2.6 </tspan>
<tspan x="10" y="1514">        │ │ ├── co@3.0.6 </tspan>
<tspan x="10" y="1530">        │ │ ├─┬ degenerator@1.0.4 </tspan>
<tspan x="10" y="1546">        │ │ │ ├── ast-types@0.9.11 </tspan>
<tspan x="10" y="1562">        │ │ │ ├─┬ escodegen@1.8.1 </tspan>
<tspan x="10" y="1578">        │ │ │ │ ├── esprima@2.7.3 </tspan>
<tspan x="10" y="1594">        │ │ │ │ ├── estraverse@1.9.3 </tspan>
<tspan x="10" y="1610">        │ │ │ │ ├── esutils@2.0.2 </tspan>
<tspan x="10" y="1626">        │ │ │ │ ├─┬ optionator@0.8.2 </tspan>
<tspan x="10" y="1642">        │ │ │ │ │ ├── deep-is@0.1.3 </tspan>
<tspan x="10" y="1658">        │ │ │ │ │ ├── fast-levenshtein@2.0.6 </tspan>
<tspan x="10" y="1674">        │ │ │ │ │ ├── levn@0.3.0 </tspan>
<tspan x="10" y="1690">        │ │ │ │ │ ├── prelude-ls@1.1.2 </tspan>
<tspan x="10" y="1706">        │ │ │ │ │ ├── type-check@0.3.2 </tspan>
<tspan x="10" y="1722">        │ │ │ │ │ └── wordwrap@1.0.0 </tspan>
<tspan x="10" y="1738">        │ │ │ │ └─┬ source-map@0.2.0 </tspan>
<tspan x="10" y="1754">        │ │ │ │   └── amdefine@1.0.1 </tspan>
<tspan x="10" y="1770">        │ │ │ └── esprima@3.1.3 </tspan>
<tspan x="10" y="1786">        │ │ ├── netmask@1.0.6 </tspan>
<tspan x="10" y="1802">        │ │ ├─┬ regenerator@0.8.46 </tspan>
<tspan x="10" y="1818">        │ │ │ ├─┬ commoner@0.10.8 </tspan>
<tspan x="10" y="1834">        │ │ │ │ ├─┬ detective@4.5.0 </tspan>
<tspan x="10" y="1850">        │ │ │ │ │ ├── acorn@4.0.11 </tspan>
<tspan x="10" y="1866">        │ │ │ │ │ └── defined@1.0.0 </tspan>
<tspan x="10" y="1882">        │ │ │ │ ├─┬ glob@5.0.15 </tspan>
<tspan x="10" y="1898">        │ │ │ │ │ ├─┬ inflight@1.0.6 </tspan>
<tspan x="10" y="1914">        │ │ │ │ │ │ └── wrappy@1.0.2 </tspan>
<tspan x="10" y="1930">        │ │ │ │ │ ├─┬ minimatch@3.0.3 </tspan>
<tspan x="10" y="1946">        │ │ │ │ │ │ └─┬ brace-expansion@1.1.6 </tspan>
<tspan x="10" y="1962">        │ │ │ │ │ │   ├── balanced-match@0.4.2 </tspan>
<tspan x="10" y="1978">        │ │ │ │ │ │   └── concat-map@0.0.1 </tspan>
<tspan x="10" y="1994">        │ │ │ │ │ ├── once@1.4.0 </tspan>
<tspan x="10" y="2010">        │ │ │ │ │ └── path-is-absolute@1.0.1 </tspan>
<tspan x="10" y="2026">        │ │ │ │ ├── graceful-fs@4.1.11 </tspan>
<tspan x="10" y="2042">        │ │ │ │ ├── iconv-lite@0.4.15 </tspan>
<tspan x="10" y="2058">        │ │ │ │ ├─┬ mkdirp@0.5.1 </tspan>
<tspan x="10" y="2074">        │ │ │ │ │ └── minimist@0.0.8 </tspan>
<tspan x="10" y="2090">        │ │ │ │ ├── q@1.5.0 </tspan>
<tspan x="10" y="2106">        │ │ │ │ └─┬ recast@0.11.23 </tspan>
<tspan x="10" y="2122">        │ │ │ │   ├── ast-types@0.9.6 </tspan>
<tspan x="10" y="2138">        │ │ │ │   └── source-map@0.5.6 </tspan>
<tspan x="10" y="2154">        │ │ │ ├─┬ defs@1.1.1 </tspan>
<tspan x="10" y="2170">        │ │ │ │ ├─┬ alter@0.2.0 </tspan>
<tspan x="10" y="2186">        │ │ │ │ │ └── stable@0.1.6 </tspan>
<tspan x="10" y="2202">        │ │ │ │ ├── ast-traverse@0.1.1 </tspan>
<tspan x="10" y="2218">        │ │ │ │ ├── breakable@1.0.0 </tspan>
<tspan x="10" y="2234">        │ │ │ │ ├── esprima-fb@15001.1001.0-dev-harmony-fb </tspan>
<tspan x="10" y="2250">        │ │ │ │ ├── simple-fmt@0.1.0 </tspan>
<tspan x="10" y="2266">        │ │ │ │ ├── simple-is@0.2.0 </tspan>
<tspan x="10" y="2282">        │ │ │ │ ├── stringmap@0.2.2 </tspan>
<tspan x="10" y="2298">        │ │ │ │ ├── stringset@0.2.1 </tspan>
<tspan x="10" y="2314">        │ │ │ │ ├── tryor@0.1.2 </tspan>
<tspan x="10" y="2330">        │ │ │ │ └─┬ yargs@3.27.0 </tspan>
<tspan x="10" y="2346">        │ │ │ │   ├── camelcase@1.2.1 </tspan>
<tspan x="10" y="2362">        │ │ │ │   ├─┬ cliui@2.1.0 </tspan>
<tspan x="10" y="2378">        │ │ │ │   │ ├─┬ center-align@0.1.3 </tspan>
<tspan x="10" y="2394">        │ │ │ │   │ │ ├─┬ align-text@0.1.4 </tspan>
<tspan x="10" y="2410">        │ │ │ │   │ │ │ ├─┬ kind-of@3.1.0 </tspan>
<tspan x="10" y="2426">        │ │ │ │   │ │ │ │ └── is-buffer@1.1.5 </tspan>
<tspan x="10" y="2442">        │ │ │ │   │ │ │ ├── longest@1.0.1 </tspan>
<tspan x="10" y="2458">        │ │ │ │   │ │ │ └── repeat-string@1.6.1 </tspan>
<tspan x="10" y="2474">        │ │ │ │   │ │ └── lazy-cache@1.0.4 </tspan>
<tspan x="10" y="2490">        │ │ │ │   │ ├── right-align@0.1.3 </tspan>
<tspan x="10" y="2506">        │ │ │ │   │ └── wordwrap@0.0.2 </tspan>
<tspan x="10" y="2522">        │ │ │ │   ├── decamelize@1.2.0 </tspan>
<tspan x="10" y="2538">        │ │ │ │   ├─┬ os-locale@1.4.0 </tspan>
<tspan x="10" y="2554">        │ │ │ │   │ └─┬ lcid@1.0.0 </tspan>
<tspan x="10" y="2570">        │ │ │ │   │   └── invert-kv@1.0.0 </tspan>
<tspan x="10" y="2586">        │ │ │ │   ├── window-size@0.1.4 </tspan>
<tspan x="10" y="2602">        │ │ │ │   └── y18n@3.2.1 </tspan>
<tspan x="10" y="2618">        │ │ │ ├── esprima-fb@15001.1001.0-dev-harmony-fb </tspan>
<tspan x="10" y="2634">        │ │ │ ├── private@0.1.7 </tspan>
<tspan x="10" y="2650">        │ │ │ ├─┬ recast@0.10.33 </tspan>
<tspan x="10" y="2666">        │ │ │ │ ├── ast-types@0.8.12 </tspan>
<tspan x="10" y="2682">        │ │ │ │ ├── esprima-fb@15001.1001.0-dev-harmony-fb </tspan>
<tspan x="10" y="2698">        │ │ │ │ └── source-map@0.5.6 </tspan>
<tspan x="10" y="2714">        │ │ │ ├── regenerator-runtime@0.9.6 </tspan>
<tspan x="10" y="2730">        │ │ │ └── through@2.3.8 </tspan>
<tspan x="10" y="2746">        │ │ └── thunkify@2.1.2 </tspan>
<tspan x="10" y="2762">        │ └── stream-to-array@1.0.0 </tspan>
<tspan x="10" y="2778">        └─┬ socks-proxy-agent@1.0.2 </tspan>
<tspan x="10" y="2794">          └─┬ socks@1.1.10 </tspan>
<tspan x="10" y="2810">            ├── ip@1.1.5 </tspan>
<tspan x="10" y="2826">            └── smart-buffer@1.1.15</tspan>
</text>
</svg>
